<?xml version="1.0" encoding="utf-8"?><svg viewBox="0 0 688 512" xmlns="http://www.w3.org/2000/svg" xmlns:xlink="http://www.w3.org/1999/xlink"><style>:root>svg{display:none}:root>svg:target{display:block}</style><svg viewBox="0 0 24 21" id="bike" xmlns="http://www.w3.org/2000/svg"><path d="M16 3.6c1 0 1.8-.8 1.8-1.8S17 0 16 0s-1.8.8-1.8 1.8.8 1.8 1.8 1.8zm3 7.4c-2.8 0-5 2.3-5 5s2.2 5 5 5 5-2.3 5-5-2.2-5-5-5zm0 8.6c-1.9 0-3.5-1.6-3.5-3.5s1.6-3.5 3.5-3.5 3.5 1.6 3.5 3.5-1.6 3.5-3.5 3.5zM14.8 8.9H19V7.1h-3.2l-1.9-3.3c-.3-.5-.8-.8-1.5-.8-.5 0-.9.2-1.2.5L7.5 7.2c-.3.3-.5.7-.5 1.2 0 .6.3 1.2.8 1.5l3.3 2v5H13v-6.5l-2.2-1.7 2.3-2.4 1.7 2.6zM5 11c-2.8 0-5 2.3-5 5s2.2 5 5 5 5-2.3 5-5-2.2-5-5-5zm0 8.6c-1.9 0-3.5-1.6-3.5-3.5s1.6-3.5 3.5-3.5 3.5 1.5 3.5 3.5-1.6 3.5-3.5 3.5z"/></svg><svg viewBox="0 0 17 21" id="bus" xmlns="http://www.w3.org/2000/svg"><path d="M16.2 3.1c-.2-1.2-1-1.6-2.1-2.1-1.1-.4-3.7-1-5.6-1C6.6 0 4 .6 2.9 1c-1.1.5-1.8.9-2.1 2.1L0 9.5v8.8h1.4v1.4c0 1.7 2.5 1.7 2.5 0v-1.4h9.2v1.4c0 1.7 2.5 1.7 2.5 0v-1.4H17V9.5l-.8-6.4zM5 1.6h7c.7 0 .7 1 0 1H5c-.7.1-.7-1 0-1zm-2.3 14c-.6 0-1.2-.5-1.2-1.2s.5-1.2 1.2-1.2c.6 0 1.2.5 1.2 1.2-.1.6-.6 1.2-1.2 1.2zm5.7-5.4H2.2c-.6 0-.7-.4-.7-.9l.6-4.7c.1-.6.3-.9 1-.9h10.7c.7 0 .9.4 1 .9l.6 4.7c.1.4-.1.9-.7.9H8.4zm5.9 5.4c-.6 0-1.2-.5-1.2-1.2s.5-1.2 1.2-1.2c.6 0 1.2.5 1.2 1.2 0 .6-.5 1.2-1.2 1.2z"/></svg><svg viewBox="0 0 17 21" id="business" xmlns="http://www.w3.org/2000/svg"><path d="M16.4 15.1c-.9-1.2-2-2-3.6-2.4l-1.5 5.2c0 .5-.4.9-.9.9s-.9-.4-.9-.9v-4.2c0-.6-.5-1.1-1.1-1.1-.6 0-1.1.5-1.1 1.1v4.2c0 .5-.4.9-.9.9s-.9-.4-.9-.9L4 12.7c-1.6.4-2.7 1.2-3.6 2.4-.2.5-.4 1.5-.4 2v2.2c0 1 .8 1.7 1.7 1.7h13.5c1 0 1.7-.8 1.7-1.7v-2.2c.1-.5-.1-1.5-.5-2zM3.9 4.6c0 2.6 1.6 6.3 4.6 6.3 2.9 0 4.6-3.8 4.6-6.3 0-2.6-2-4.6-4.6-4.6C6 0 3.9 2.1 3.9 4.6z"/></svg><svg class="adcircle" viewBox="0 0 45 45" id="circle" xmlns="http://www.w3.org/2000/svg"><?xml-stylesheet type="text/css" href="../css/style.css"?><circle r="16" cx="50%" cy="50%"/></svg><svg viewBox="0 0 18.6 18.6" id="close" xmlns="http://www.w3.org/2000/svg"><path d="M11.4 9.3l6.7-6.7c.6-.6.6-1.5 0-2.1s-1.5-.6-2.1 0L9.3 7.2 2.6.4C2-.1 1-.1.4.4-.1 1-.1 2 .4 2.6l6.7 6.7L.4 16c-.6.6-.6 1.5 0 2.1s1.5.6 2.1 0l6.7-6.7 6.7 6.7c.6.6 1.5.6 2.1 0s.6-1.5 0-2.1l-6.6-6.7z"/></svg><svg viewBox="0 0 9 10" id="close-form" xmlns="http://www.w3.org/2000/svg"><g clip-path="url(#afclip0)" stroke-linecap="round" stroke-linejoin="round"><path d="M7.875 1.806l-6.75 6.188m0-6.188l6.75 6.188"/></g><defs><clipPath id="afclip0"><path transform="rotate(-90 4.513 4.513)" d="M0 0h8.25v9H0z"/></clipPath></defs></svg><svg viewBox="0 0 212 212" id="companion-back-tablet" xmlns="http://www.w3.org/2000/svg"><rect width="212" height="212" rx="20"/></svg><svg viewBox="0 0 10 5" id="companion-filter-expend-button" xmlns="http://www.w3.org/2000/svg"><path d="M5 5L.67.5h8.66L5 5z"/></svg><svg viewBox="0 0 45 45" id="contacts-icon" xmlns="http://www.w3.org/2000/svg"><circle cx="22.5" cy="22.5" r="22.5"/><path fill-rule="evenodd" clip-rule="evenodd" d="M22.5 15.086c-2.796 0-5.6.473-6.617 1.415-.844.782-1.125 2.162-1.22 3.037 0 0-.013.086-.013.123 0 .343.294.618.654.618.043 0 1.616-.12 2.565-.195.022-.003.045-.006.068-.012.353-.01.638-.281.638-.618l.003-1.217c0-.377.324-.68.723-.68H25.7c.399 0 .723.303.723.68l.003 1.217c0 .337.285.609.638.618.022.006.045.01.069.012.948.074 2.521.195 2.564.195.36 0 .654-.275.654-.618 0-.037-.013-.124-.013-.124-.095-.874-.376-2.254-1.22-3.036-1.017-.942-3.82-1.415-6.617-1.415zm0 8.032c-.723 0-1.308.553-1.308 1.235 0 .683.585 1.236 1.308 1.236.723 0 1.308-.553 1.308-1.236 0-.682-.585-1.235-1.308-1.235zm-.981-2.78v-.773c0-.426-.367-.772-.818-.772s-.818.346-.818.772v.772l-4.412 4.452a1.504 1.504 0 00-.494 1.106v1.238c0 .683.586 1.236 1.309 1.236h.327v.772c0 .427.366.773.817.773s.818-.346.818-.773v-.772h8.504v.772c0 .427.366.773.818.773.451 0 .817-.346.817-.773v-.772h.327c.723 0 1.309-.553 1.309-1.236v-1.238c0-.433-.19-.825-.494-1.106l-4.412-4.452v-.772c0-.426-.367-.772-.818-.772s-.818.346-.818.772v.772H21.52zm.981 1.544c1.446 0 2.617 1.106 2.617 2.471 0 1.366-1.171 2.472-2.617 2.472s-2.617-1.106-2.617-2.472c0-1.365 1.171-2.47 2.617-2.47z"/></svg><svg viewBox="0 0 90 90" id="contacts-icon-desktop" xmlns="http://www.w3.org/2000/svg"><circle cx="45" cy="45" r="45"/><path fill-rule="evenodd" clip-rule="evenodd" d="M45 30.172c-5.593 0-11.2.946-13.234 2.83-1.687 1.563-2.25 4.325-2.44 6.073 0 0-.026.173-.026.247 0 .686.589 1.236 1.308 1.236.086 0 3.232-.241 5.129-.39.046-.006.092-.012.137-.024.707-.019 1.276-.562 1.276-1.236l.006-2.434c0-.754.648-1.36 1.446-1.36h12.795c.799 0 1.446.606 1.446 1.36l.007 2.434c0 .674.57 1.217 1.275 1.236.046.012.092.018.138.025 1.897.148 5.044.389 5.128.389.72 0 1.309-.55 1.309-1.236 0-.074-.026-.247-.026-.247-.19-1.748-.752-4.51-2.44-6.073-2.035-1.884-7.641-2.83-13.234-2.83zm0 16.063c-1.446 0-2.617 1.106-2.617 2.472 0 1.365 1.171 2.47 2.617 2.47s2.616-1.105 2.616-2.47-1.17-2.471-2.616-2.471zm-1.963-5.56v-1.544c0-.853-.732-1.545-1.635-1.545s-1.635.692-1.635 1.545v1.544l-8.825 8.903a3.009 3.009 0 00-.988 2.212v2.477c0 1.365 1.171 2.471 2.617 2.471h.654v1.545c0 .852.733 1.544 1.635 1.544s1.636-.692 1.636-1.544v-1.545h17.008v1.545c0 .852.733 1.544 1.635 1.544.903 0 1.636-.692 1.636-1.544v-1.545h.654c1.445 0 2.616-1.105 2.616-2.47V51.79c0-.866-.38-1.65-.987-2.212l-8.825-8.903v-1.544c0-.853-.733-1.545-1.635-1.545s-1.636.692-1.636 1.545v1.544h-3.925zM45 43.765c2.891 0 5.233 2.211 5.233 4.942 0 2.73-2.342 4.942-5.233 4.942s-5.233-2.212-5.233-4.942c0-2.731 2.341-4.943 5.233-4.943z"/></svg><svg viewBox="0 0 45 45" id="contacts-icon-mail" xmlns="http://www.w3.org/2000/svg"><circle cx="22.5" cy="22.5" r="22.5"/><path fill-rule="evenodd" clip-rule="evenodd" d="M30.14 27.466L25.808 23.5l4.33-3.966-.59-.631-6.299 5.769-6.299-5.77-.59.632 4.33 3.966-4.33 3.966.59.631 4.38-4.011 1.919 1.758 1.92-1.758 4.379 4.011.59-.63zM15.575 17.25c-.81 0-1.465.699-1.465 1.558v9.384c0 .86.65 1.558 1.465 1.558h15.348c.809 0 1.465-.699 1.465-1.558v-9.384c0-.86-.65-1.558-1.465-1.558H15.576z"/></svg><svg viewBox="0 0 90 90" id="contacts-icon-mail-desktop" xmlns="http://www.w3.org/2000/svg"><circle cx="45" cy="45" r="45"/><path fill-rule="evenodd" clip-rule="evenodd" d="M60.279 54.933L51.618 47l8.66-7.933-1.18-1.262L46.5 49.344 33.902 37.805l-1.18 1.262L41.381 47l-8.66 7.933 1.18 1.262 8.76-8.023 3.838 3.515 3.838-3.515 8.76 8.023 1.18-1.262zM31.152 34.5c-1.618 0-2.93 1.398-2.93 3.116v18.768c0 1.721 1.301 3.116 2.93 3.116h30.696c1.618 0 2.93-1.398 2.93-3.116V37.616c0-1.721-1.301-3.116-2.93-3.116H31.152z"/></svg><svg viewBox="0 0 76 76" id="contacts-icon-phone-tablet" xmlns="http://www.w3.org/2000/svg"><g filter="url(#amfilter0_d)"><circle cx="38" cy="34" r="34"/><path fill-rule="evenodd" clip-rule="evenodd" d="M38 22.797c-4.226 0-8.462.714-9.999 2.138-1.275 1.18-1.7 3.267-1.843 4.588 0 0-.02.131-.02.187 0 .518.445.934.988.934.065 0 2.442-.182 3.875-.294.035-.005.07-.01.104-.02.534-.013.964-.424.964-.933l.005-1.839c0-.57.49-1.027 1.092-1.027h9.668c.603 0 1.092.458 1.092 1.027l.005 1.84c0 .508.43.919.964.933.034.01.069.014.104.019 1.433.111 3.81.294 3.875.294.543 0 .988-.416.988-.934 0-.056-.02-.187-.02-.187-.143-1.32-.568-3.407-1.843-4.588-1.537-1.424-5.773-2.138-9.999-2.138zm0 12.136c-1.092 0-1.977.836-1.977 1.868s.885 1.867 1.977 1.867 1.977-.836 1.977-1.867-.885-1.867-1.977-1.867zm-1.483-4.2v-1.168c0-.644-.553-1.167-1.235-1.167s-1.236.523-1.236 1.167v1.167l-6.668 6.727a2.273 2.273 0 00-.746 1.671v1.872c0 1.031.885 1.867 1.977 1.867h.495v1.167c0 .644.553 1.167 1.235 1.167s1.236-.523 1.236-1.167v-1.167h12.85v1.167c0 .644.554 1.167 1.236 1.167.682 0 1.236-.523 1.236-1.167v-1.167h.494c1.092 0 1.977-.836 1.977-1.867V39.13c0-.654-.287-1.246-.746-1.671l-6.668-6.727v-1.167c0-.644-.554-1.167-1.236-1.167-.682 0-1.235.523-1.235 1.167v1.167h-2.966zM38 33.065c2.185 0 3.954 1.671 3.954 3.735s-1.77 3.734-3.954 3.734-3.954-1.671-3.954-3.734c0-2.064 1.77-3.735 3.954-3.735z"/></g><defs><filter id="amfilter0_d" x="0" y="0" width="76" height="76" filterUnits="userSpaceOnUse" color-interpolation-filters="sRGB"><feFlood flood-opacity="0" result="BackgroundImageFix"/><feColorMatrix in="SourceAlpha" values="0 0 0 0 0 0 0 0 0 0 0 0 0 0 0 0 0 0 127 0"/><feOffset dy="4"/><feGaussianBlur stdDeviation="2"/><feColorMatrix values="0 0 0 0 0 0 0 0 0 0 0 0 0 0 0 0 0 0 0.25 0"/><feBlend in2="BackgroundImageFix" result="effect1_dropShadow"/><feBlend in="SourceGraphic" in2="effect1_dropShadow" result="shape"/></filter></defs></svg><svg viewBox="0 0 68 68" id="contacts-icon-tablet" xmlns="http://www.w3.org/2000/svg"><circle cx="34" cy="34" r="34"/><path fill-rule="evenodd" clip-rule="evenodd" d="M45.544 41.505L39 35.51l6.544-5.994-.892-.953-9.519 8.718-9.518-8.718-.892.954 6.544 5.993-6.544 5.994.892.953 6.618-6.062 2.9 2.657 2.9-2.656 6.619 6.061.892-.953zM23.537 26.067c-1.222 0-2.213 1.056-2.213 2.354V42.6c0 1.3.982 2.354 2.213 2.354H46.73c1.222 0 2.213-1.055 2.213-2.354v-14.18c0-1.3-.983-2.354-2.213-2.354H23.537z"/></svg><svg viewBox="0 0 28 43" id="contacts-location" xmlns="http://www.w3.org/2000/svg"><path d="M11.7 13.9c0-1.2 1-2.2 2.3-2.2s2.3 1 2.3 2.2c0 1.2-1 2.2-2.3 2.2-1.2 0-2.3-1-2.3-2.2zM14 8.1c-3.2 0-5.9 2.6-5.9 5.8s2.6 5.8 5.9 5.8c3.2 0 5.9-2.6 5.9-5.8 0-3.2-2.7-5.8-5.9-5.8zM0 13.6c0 9.1 10.9 16.2 11.7 26.7v.4c0 1.2 1 2.2 2.3 2.2s2.3-1 2.3-2.2v-.4C17.2 29.8 28 22.8 28 13.6 28 6.1 21.7 0 14 0S0 6.1 0 13.6zm14-9.1c5.2 0 9.5 4.2 9.5 9.4s-4.2 9.4-9.5 9.4-9.5-4.2-9.5-9.4S8.8 4.5 14 4.5z"/></svg><svg viewBox="0 0 36 26" id="contacts-mail" xmlns="http://www.w3.org/2000/svg"><path d="M0 23c0 1.6 1.3 3 3 3h30c1.7 0 3-1.3 3-3V3c0-1.6-1.3-3-3-3H3C1.3 0 0 1.3 0 3v20zm11-10L4.2 6.2c-.6-.6-.6-1.5 0-2 .6-.6 1.5-.6 2.1 0l11 10.9c.4.4 1.2.4 1.6 0l11-10.9c.6-.6 1.5-.6 2.1 0 .6.6.6 1.5 0 2L25 13l6.9 6.8c.6.6.6 1.5 0 2-.6.6-1.5.6-2.1 0L22.9 15s-2.1 2.2-2.5 2.5c-.6.6-1.4 1-2.4 1-.9 0-1.8-.4-2.4-1L13.1 15l-6.9 6.8c-.6.6-1.5.6-2.1 0-.6-.6-.6-1.5 0-2L11 13z"/></svg><svg viewBox="0 0 36 36" id="contacts-phone" xmlns="http://www.w3.org/2000/svg"><path d="M18 0C11.6 0 5.2 1.1 2.8 3.4.9 5.3.2 8.7 0 10.8v.3c0 .8.7 1.5 1.5 1.5.1 0 3.7-.3 5.9-.5h.2c.8 0 1.5-.7 1.5-1.5v-3C9 6.7 9.7 6 10.7 6h14.7c.8 0 1.6.7 1.6 1.7v3c0 .8.7 1.5 1.5 1.5h.2c2.2.2 5.8.5 5.9.5.8 0 1.5-.7 1.5-1.5v-.3c-.2-2.1-.9-5.5-2.8-7.4C30.8 1.1 24.4 0 18 0zm0 19.5c-1.7 0-3 1.3-3 3s1.3 3 3 3 3-1.3 3-3-1.3-3-3-3zm-2.3-6.8v-1.9c0-1-.8-1.9-1.9-1.9s-1.8.9-1.8 2v1.9L1.9 23.6c-.7.7-1.1 1.6-1.1 2.7v3c0 1.7 1.3 3 3 3h.8v1.9c0 1 .8 1.9 1.9 1.9s1.9-.8 1.9-1.9v-1.9h19.5v1.9c0 1 .8 1.9 1.9 1.9 1 0 1.9-.8 1.9-1.9v-1.9h.8c1.7 0 3-1.3 3-3v-3c0-1.1-.4-2-1.1-2.7L24 12.7v-1.9c0-1-.8-1.9-1.9-1.9s-1.9.8-1.9 1.9v1.9h-4.5zm2.3 3.8c3.3 0 6 2.7 6 6s-2.7 6-6 6-6-2.7-6-6 2.7-6 6-6z"/></svg><svg viewBox="0 0 21 21" id="delete-button-form" xmlns="http://www.w3.org/2000/svg"><circle cx="10.5" cy="10.5" r="10.5"/><path d="M13.875 7.125l-6.75 6.75m0-6.75l6.75 6.75"/></svg><svg version="1.1" id="dots" x="0" y="0" viewBox="0 0 27 5" xml:space="preserve" xmlns="http://www.w3.org/2000/svg"><style>.asst0{fill:#606161}</style><circle class="asst0" cx="2.5" cy="2.5" r="2.5"/><circle class="asst0" cx="13.5" cy="2.5" r="2.5"/><circle class="asst0" cx="24.5" cy="2.5" r="2.5"/></svg><svg viewBox="0 0 10 5" id="dropdown" xmlns="http://www.w3.org/2000/svg"><path d="M5 5L0 0h10z"/></svg><svg viewBox="0 0 17 9" id="dropdown-form" xmlns="http://www.w3.org/2000/svg"><path d="M8.5 7.2L1.3.2C1-.1.5-.1.2.2c-.3.3-.3.8 0 1L8 8.8c.3.3.8.3 1.1 0l7.7-7.5c.1-.2.2-.4.2-.6s-.1-.4-.2-.5c-.3-.3-.8-.3-1.1 0l-7.2 7z"/></svg><svg viewBox="0 0 11 21" id="facebook" xmlns="http://www.w3.org/2000/svg"><path d="M7.8 21H2.2v-9.8H0V6.4h2.1c-.1-2.2.3-3.8 1.3-4.9C4.2.6 5.5.1 7.1 0H11v4.7H7.9c-.1.2-.2.8-.2 1.7H11v4.8H7.8V21zm-4.4-1.1h3.1v-9.8h3.2V7.5H6.5v-.6c0-1.5 0-2.9.8-3.4l.2-.1h2.3V1.1H7.1c-1.2.1-2.2.5-2.8 1.2-.8.9-1.1 2.5-.9 4.6l.1.6H1.2v2.6h2.2v9.8z"/></svg><svg viewBox="0 0 15 10" id="filter" xmlns="http://www.w3.org/2000/svg"><path d="M4 0h2v2H4zM0 0h3v2H0zm7 0h8v2H7zM4 8h2v2H4zM0 8h3v2H0zm7 0h8v2H7zm2-4h2v2H9zm3 0h3v2h-3zM0 4h8v2H0z"/></svg><svg viewBox="0 0 18 18" id="filter-checkbox-active" xmlns="http://www.w3.org/2000/svg"><rect width="18" height="18" rx="4"/><path d="M7.79 12.886l-2.54-2.761V9c0 .03 0-.03 0 0V7.875l2.533 2.442a.216.216 0 00.315 0L13.5 4.5v2.625l-4.644 4.966h.001l-.752.794a.217.217 0 01-.315 0z"/></svg><svg viewBox="0 0 16 16" id="filter-close" xmlns="http://www.w3.org/2000/svg"><path d="M14 2L2 14M2 2l12 12"/></svg><svg viewBox="0 0 24 23" id="filter-close-tablet" xmlns="http://www.w3.org/2000/svg"><g clip-path="url(#azclip0)" stroke-width="2" stroke-linecap="round" stroke-linejoin="round"><path d="M21 2.916L3 19.343M3 2.916l18 16.427"/></g><defs><clipPath id="azclip0"><path transform="rotate(-90 11.04 11.04)" d="M0 0h21.903v24H0z"/></clipPath></defs></svg><svg viewBox="0 0 10 10" id="filter-range-btn" xmlns="http://www.w3.org/2000/svg"><circle cx="5" cy="5" r="5"/></svg><svg viewBox="0 0 30 6" id="filter-show-more-tablet" xmlns="http://www.w3.org/2000/svg"><path d="M6 3a3 3 0 11-6 0 3 3 0 016 0z"/><circle cx="15" cy="3" r="3"/><circle cx="27" cy="3" r="3"/></svg><svg viewBox="0 0 71 48" id="flag-australia" xmlns="http://www.w3.org/2000/svg"><path d="M64.31.33H6A6.64 6.64 0 00.25 5.91v35.72a6.64 6.64 0 006.56 5.64H63.5a6.64 6.64 0 006.64-6.64V6.92A6.64 6.64 0 0064.31.33z"/><path d="M25.11.29H6.71A6.64 6.64 0 00.14 6.93v17.32h25L25.11.29z"/><path d="M10.68 17.69v6.56h3.9v-6.71l6.71 6.71h3.82v-3l-7-7h7v-4h-7l7-7v-3h-3.83l-6.7 6.7V.25h-3.9v6.56L4.52.65A6.66 6.66 0 00.89 3.82l6.41 6.41H.14v4H7.3L.14 21.39v2.83h4l6.54-6.53z"/><path d="M11.68 14.95v9.31h1.9V14.8L23 24.25h2.08V23l-9.78-9.78h9.78v-1.93H15.3l9.78-9.78V.29H23l-9.45 9.45V.29h-1.9v9.3L3.32 1.25A6.67 6.67 0 001.56 2.8l8.49 8.49H.12v1.95h9.93L.12 23.17v1.09h2.23l9.33-9.31zM41.83 13.17c-.32.23-.51.1-.41-.29l.35-1.43a1.3 1.3 0 00-.37-1.17l-1-.91c-.3-.26-.22-.48.17-.49h1.46a1.05 1.05 0 00.91-.71l.46-1.57c.11-.38.31-.39.44 0l.55 1.54a1.1 1.1 0 001 .68h1.49c.39 0 .47.22.17.48l-1.13 1a1.24 1.24 0 00-.34 1.16l.36 1.26c.11.38-.07.52-.41.32l-1.21-.75a1.16 1.16 0 00-1.19 0l-1.3.88zm12 4c-.32.23-.51.1-.41-.29l.35-1.43a1.3 1.3 0 00-.37-1.17l-1-.91c-.3-.26-.22-.48.17-.49h1.46a1.05 1.05 0 00.91-.71l.46-1.57c.11-.38.31-.39.44 0l.55 1.54a1.1 1.1 0 001 .68h1.49c.39 0 .47.22.17.48l-1.13 1a1.24 1.24 0 00-.34 1.16l.36 1.26c.11.38-.07.52-.41.32l-1.21-.75a1.16 1.16 0 00-1.19 0l-1.3.88zm-18 7c-.32.23-.51.1-.41-.29l.35-1.43a1.3 1.3 0 00-.37-1.17l-1-.91c-.3-.26-.22-.48.17-.49h1.46a1.05 1.05 0 00.91-.71l.46-1.57c.11-.38.31-.39.44 0l.55 1.54a1.1 1.1 0 001 .68h1.49c.39 0 .47.22.17.48l-1.13 1a1.24 1.24 0 00-.34 1.16l.36 1.26c.11.38-.07.52-.41.32l-1.21-.75a1.16 1.16 0 00-1.19 0l-1.3.88zM11.29 40.14c-.41.29-.65.13-.53-.37l.44-1.84a1.67 1.67 0 00-.48-1.5l-1.35-1.17c-.38-.33-.28-.61.22-.63l1.89-.05a1.35 1.35 0 001.18-.91l.59-2c.14-.49.4-.5.57 0l.71 2a1.42 1.42 0 001.23.88h1.92c.5 0 .61.28.23.62l-1.46 1.28a1.59 1.59 0 00-.44 1.5l.47 1.62c.14.49-.1.67-.53.4l-1.56-1a1.51 1.51 0 00-1.53 0l-1.57 1.17zM50.34 29.2c-.23.16-.36.07-.3-.2l.25-1a.93.93 0 00-.27-.83l-.75-.65c-.21-.18-.16-.34.12-.35h1a.75.75 0 00.65-.51l.33-1.12c.08-.27.22-.28.32 0l.4 1.1a.79.79 0 00.68.49h1.07c.28 0 .34.16.13.34l-.81.71A.88.88 0 0053 28l.26.9c.08.27-.05.37-.29.23l-.87-.54a.84.84 0 00-.85 0l-.91.61z"/></svg><svg viewBox="0 0 71 48" id="flag-belgium" xmlns="http://www.w3.org/2000/svg"><path d="M7.27.85A6.36 6.36 0 00.91 7.21v34.27a6.36 6.36 0 006.36 6.36h17v-47l-17 .01z"/><path d="M24.25.85v47H47.6v-47H24.25z"/><path d="M64.54.85H47.59v47h16.95a6.36 6.36 0 006.36-6.36V7.21A6.36 6.36 0 0064.54.85z"/></svg><svg viewBox="0 0 71 48" id="flag-bosnia" xmlns="http://www.w3.org/2000/svg"><rect x=".9" y=".13" width="70" height="47" rx="6.36"/><path d="M13.9.13h37v47zM8.19 4.88c-.27-.08-.28-.24 0-.36l1-.44a.93.93 0 00.49-.73v-1c0-.28.17-.33.35-.12l.67.8c.203.22.517.3.8.2l1.08-.43c.26-.11.36 0 .2.24l-.62 1a.79.79 0 000 .84l.65.85c.17.22.08.36-.19.31l-1.06-.2a.88.88 0 00-.8.32l-.55.76c-.17.23-.33.19-.36-.09l-.11-1a.84.84 0 00-.55-.65l-1-.3zm4.32 5.5c-.27-.08-.28-.24 0-.36l1-.44a.92.92 0 00.49-.73v-1c0-.28.17-.33.35-.12l.67.8c.203.22.517.3.8.2l1.08-.43c.26-.1.35 0 .2.24l-.62 1a.79.79 0 000 .84l.65.85c.17.22.08.36-.19.31l-1.06-.2a.88.88 0 00-.8.32l-.55.76c-.17.23-.33.19-.36-.09l-.12-1a.84.84 0 00-.55-.65l-.99-.3zm4.33 5.5c-.27-.08-.28-.24 0-.36l1-.44a.92.92 0 00.49-.73v-1c0-.28.17-.33.35-.12l.67.81c.203.22.517.3.8.2l1.08-.43c.26-.11.35 0 .2.24l-.62 1a.79.79 0 000 .84l.65.85c.17.22.08.36-.19.31l-1.06-.2a.88.88 0 00-.8.32l-.55.76c-.16.23-.33.19-.36-.09l-.11-1a.84.84 0 00-.55-.65l-1-.31zm4.33 5.5c-.27-.08-.28-.24 0-.36l1-.44a.92.92 0 00.49-.73v-1c0-.28.17-.33.35-.12l.67.81c.203.22.517.3.8.2l1.08-.43c.26-.1.35 0 .2.24l-.62 1a.79.79 0 000 .84l.65.85c.17.22.08.36-.19.31l-1.06-.2a.88.88 0 00-.8.32l-.55.76c-.17.23-.33.19-.36-.09l-.12-1a.83.83 0 00-.55-.65l-.99-.31zm4.33 5.5c-.27-.08-.28-.24 0-.36l1-.44a.93.93 0 00.49-.73v-1c0-.28.17-.33.35-.12l.67.81c.203.22.517.3.8.2l1.08-.43c.26-.11.35 0 .2.24l-.62 1a.79.79 0 000 .84l.65.85c.17.22.08.36-.19.31l-1.06-.2a.88.88 0 00-.8.32l-.55.76c-.17.23-.33.19-.36-.09l-.12-1a.83.83 0 00-.55-.65l-.99-.31zm4.33 5.5c-.27-.08-.28-.24 0-.36l1-.44a.93.93 0 00.49-.73v-1c0-.28.17-.33.35-.12l.67.81c.203.22.517.3.8.2l1.08-.43c.26-.11.35 0 .2.24l-.62 1a.79.79 0 000 .84l.65.85c.17.22.08.36-.19.31l-1.06-.2a.88.88 0 00-.8.32l-.55.76c-.17.23-.33.19-.36-.09l-.12-1a.84.84 0 00-.55-.65l-.99-.31zm4.33 5.51c-.27-.08-.28-.24 0-.36l1-.44a.93.93 0 00.49-.73v-1c0-.28.17-.34.35-.12l.67.81c.203.22.517.3.8.2l1.08-.43c.26-.11.35 0 .2.24l-.62 1a.79.79 0 000 .84l.65.85c.17.22.08.36-.19.31l-1.06-.2a.88.88 0 00-.8.32l-.55.76c-.17.23-.33.19-.36-.09l-.12-1a.84.84 0 00-.55-.65l-.99-.31zm3.71 4.71c-.27-.08-.28-.24 0-.36l1-.44a.93.93 0 00.49-.73v-1c0-.28.17-.33.35-.12l.67.81c.203.22.517.3.8.2l1.08-.43c.26-.11.35 0 .21.24l-.62 1a.79.79 0 000 .84l.65.85c.17.22.09.36-.19.31l-1.06-.2a.88.88 0 00-.8.32l-.55.76c-.16.23-.33.19-.36-.09l-.12-1a.84.84 0 00-.55-.65l-1-.31z"/></svg><svg viewBox="0 0 71 48" id="flag-czech" xmlns="http://www.w3.org/2000/svg"><path d="M63.92.55H6.65A6.36 6.36 0 00.29 6.91v17.64h70V6.91A6.36 6.36 0 0063.92.55zM.28 41.18a6.36 6.36 0 006.36 6.36h57.28a6.36 6.36 0 006.36-6.36V24.55h-70v16.63z"/><path d="M2.19 2.38a6.34 6.34 0 00-1.9 4.54v34.27a6.34 6.34 0 001.95 4.57l23.05-21.21L2.19 2.38z"/></svg><svg viewBox="0 0 71 48" id="flag-dominica" xmlns="http://www.w3.org/2000/svg"><rect x=".08" y=".55" width="70" height="47" rx="6.36"/><path d="M.08 26.14h70.13v4.18H.08zM.08 21.96h70.13v4.18H.08z"/><path d="M.08 17.79h70.13v4.18H.08z"/><path d="M37.42.55h4.18v47h-4.18zM33.24.55h4.18v47h-4.18z"/><path d="M29.07.55h4.18v47h-4.18z"/><circle cx="35.15" cy="24.05" r="12.92"/><path d="M44.8 20.51h.78a.13.13 0 01.07.23l-.6.44a.13.13 0 000 .14l.23.76a.13.13 0 01-.2.14l-.65-.45a.13.13 0 00-.15 0l-.69.52a.13.13 0 01-.2-.14l.26-.8a.13.13 0 000-.14l-.67-.49a.13.13 0 01.08-.23h.84a.13.13 0 00.12-.09l.25-.72a.13.13 0 01.24 0l.25.72a.13.13 0 00.04.11zm-19.31 7.08h-.78a.13.13 0 01-.07-.23l.6-.44a.13.13 0 000-.14l-.23-.76a.13.13 0 01.2-.14l.65.45a.13.13 0 00.15 0l.69-.52a.13.13 0 01.2.14l-.26.8a.13.13 0 000 .14l.67.49a.13.13 0 01-.08.23h-.84a.13.13 0 00-.12.09l-.25.72a.13.13 0 01-.24 0l-.25-.72a.13.13 0 00-.04-.11zM45 26.86l.62.47a.13.13 0 01-.08.23h-.75a.13.13 0 00-.12.09l-.26.75a.13.13 0 01-.24 0l-.26-.74a.13.13 0 00-.12-.09h-.86a.13.13 0 01-.08-.23l.69-.49a.13.13 0 000-.14l-.25-.79a.13.13 0 01.2-.14l.68.5a.13.13 0 00.15 0l.63-.44a.13.13 0 01.2.14l-.22.73a.13.13 0 00.07.15zm-19.75-5.62l-.62-.47a.13.13 0 01.08-.23h.75a.13.13 0 00.12-.09l.26-.75a.13.13 0 01.24 0l.26.74a.13.13 0 00.12.09h.86a.13.13 0 01.08.23l-.69.49a.13.13 0 000 .14l.25.79a.13.13 0 01-.2.14l-.68-.5a.13.13 0 00-.15 0l-.63.44a.13.13 0 01-.2-.14l.22-.73a.13.13 0 00-.07-.15zm16.25 10.9l.22.75a.13.13 0 01-.2.14l-.6-.44a.13.13 0 00-.15 0l-.65.46a.13.13 0 01-.2-.14l.23-.76a.13.13 0 00-.05-.14l-.71-.49a.13.13 0 01.07-.24h.84a.13.13 0 00.12-.09l.26-.79a.13.13 0 01.25 0l.26.8a.13.13 0 00.12.09h.76a.13.13 0 01.07.23l-.61.46a.13.13 0 00-.03.16zM28.79 16l-.22-.75a.13.13 0 01.2-.14l.6.44a.13.13 0 00.15 0l.65-.46a.13.13 0 01.2.14l-.23.76a.13.13 0 00.05.14l.71.49a.13.13 0 01-.07.24H30a.13.13 0 00-.12.09l-.26.79a.13.13 0 01-.25 0l-.26-.8a.13.13 0 00-.12-.09h-.76a.13.13 0 01-.07-.23l.61-.46a.13.13 0 00.02-.16zm12.09-.49l.64-.44a.13.13 0 01.2.15l-.23.71a.13.13 0 000 .14l.64.48a.13.13 0 01-.07.23h-.79a.13.13 0 00-.12.09l-.25.83a.13.13 0 01-.25 0l-.26-.8a.13.13 0 00-.12-.09h-.83a.13.13 0 01-.07-.23l.68-.49a.13.13 0 000-.14l-.22-.73a.13.13 0 01.2-.14l.62.44a.13.13 0 00.23-.01zM29.41 32.59l-.64.44a.13.13 0 01-.2-.15l.23-.71a.13.13 0 000-.14l-.64-.48a.13.13 0 01.07-.23h.79a.13.13 0 00.12-.09l.25-.83a.13.13 0 01.25 0l.26.8a.13.13 0 00.12.09h.83a.13.13 0 01.07.23l-.68.49a.13.13 0 000 .14l.22.73a.13.13 0 01-.2.14l-.62-.44a.13.13 0 00-.23.01zm5.35-18.82L35 13a.13.13 0 01.24 0l.23.71a.13.13 0 00.12.09h.8a.13.13 0 01.08.23l-.63.48a.13.13 0 000 .15l.28.82a.13.13 0 01-.2.15l-.68-.5a.13.13 0 00-.15 0l-.68.48a.13.13 0 01-.2-.15l.26-.8a.13.13 0 000-.14l-.61-.46a.13.13 0 01.08-.23h.76a.13.13 0 00.06-.06zm.77 20.56l-.26.73a.13.13 0 01-.24 0l-.23-.71a.13.13 0 00-.12-.09h-.8a.13.13 0 01-.08-.23l.63-.48a.13.13 0 000-.15l-.28-.82a.13.13 0 01.2-.15l.68.5a.13.13 0 00.15 0l.68-.48a.13.13 0 01.2.15l-.26.8a.13.13 0 000 .14l.61.46a.13.13 0 01-.08.23h-.76a.13.13 0 00-.04.1zm3.4-5a2.86 2.86 0 00-.05-1.11 2.62 2.62 0 00-.09-1 6.11 6.11 0 00-.64-3.57 9.9 9.9 0 00-1.1-2 .07.07 0 01.08-.1 1 1 0 001.14-.25.07.07 0 000-.11 1.47 1.47 0 01-.41-.18.07.07 0 010-.12 1.12 1.12 0 00.29-.22.07.07 0 000-.11 1.46 1.46 0 01-.4-.18.07.07 0 010-.12 1.16 1.16 0 00.24-.2.07.07 0 000-.11 1.94 1.94 0 01-.59-.3.07.07 0 010-.11c.073-.05.14-.106.2-.17a.07.07 0 000-.11 1.58 1.58 0 01-.45-.21.07.07 0 010-.13h.21a.07.07 0 000-.13c-.62-.35-1.37-1.22-1.84-1.45a1.9 1.9 0 00-1.87.1 1 1 0 00-.36.64.07.07 0 01-.05.05h-.16c-.42.09-.68.46-.36 1.3a.07.07 0 00.13 0 1.53 1.53 0 01.09-.19.07.07 0 01.09 0 .6.6 0 00.51 0 .81.81 0 00.2-.1.07.07 0 01.07 0 .07.07 0 010 .1.38.38 0 00-.05.18.4.4 0 00-.18.32.4.4 0 00-.14.3 6.32 6.32 0 00-.64 3.41 5.19 5.19 0 001.42 3.27c.022.09.052.176.09.26-.02.15-.02.3 0 .45 0 .45.25.78.45.77.018.209.083.41.19.59a.07.07 0 010 .09 1.21 1.21 0 00-.37.33.07.07 0 01-.05 0h-1.27c-.18 0-.07-.23-.21-.47a.77.77 0 00-.95-.17c-.32.18-.07.51-.62.56a.07.07 0 00-.06.09c.12.284.289.545.5.77.86.095 1.726.125 2.59.09a.07.07 0 01.05 0 1 1 0 001 .43h.06a.48.48 0 00.41 0 .07.07 0 01.06 0 .53.53 0 00.37 0h.05a.67.67 0 00.3 0 .07.07 0 01.07 0c.12.24.25.38.37.36.13.39.26.62.39.6.13-.02.22-.23.29-.61h.05c.2 0 .36-.37.46-.94a.07.07 0 01.06-.06h.11a.56.56 0 000-.73v-.41a.07.07 0 01.13 0l.14.32a.147.147 0 10.05.29z"/></svg><svg viewBox="0 0 71 48" id="flag-france" xmlns="http://www.w3.org/2000/svg"><path d="M6.51.11A6.36 6.36 0 00.15 6.47v34.27a6.36 6.36 0 006.36 6.36h17V.1l-17 .01z"/><path d="M23.49.11v47h23.35v-47H23.49z"/><path d="M63.78.11H46.83v47h16.95a6.36 6.36 0 006.36-6.36V6.48A6.36 6.36 0 0063.78.11z"/></svg><svg viewBox="0 0 512 512" id="flag-germany" xmlns="http://www.w3.org/2000/svg"><path d="M473.655 88.276H38.345C17.167 88.276 0 105.443 0 126.621v73.471h512v-73.471c0-21.178-17.167-38.345-38.345-38.345zM0 385.379c0 21.177 17.167 38.345 38.345 38.345h435.31c21.177 0 38.345-17.167 38.345-38.345v-73.471H0v73.471z"/><path d="M0 200.09h512V311.9H0z"/></svg><svg viewBox="0 0 71 48" id="flag-seychelles" xmlns="http://www.w3.org/2000/svg"><path d="M3.88 47l.51-.12 66.47-30.61V7.33A6.36 6.36 0 0064.5.97H46.6L2.28 45.59A6.39 6.39 0 003.88 47zM7.24 1A6.36 6.36 0 00.88 7.36v34.27c0 .915.197 1.819.58 2.65L24.15 1H7.24z"/><path d="M25.1 1h-.95L1.45 44.28c.14.306.304.6.49.88.11.16.22.31.34.46L46.6 1H25.1zM70.87 30.89V16.26L4.4 46.87zM4.4 46.87l-.41.19a6.32 6.32 0 003.25.9h57.27a6.36 6.36 0 006.36-6.36V30.9L4.4 46.87z"/></svg><svg viewBox="0 0 71 48" id="flag-sri-lanka" xmlns="http://www.w3.org/2000/svg"><rect x=".25" y=".52" width="70" height="47" rx="6.36"/><path d="M5.25 42.52v-37h8.11v37zM13.36 42.52v-37h8.11v37zM26.47 42.52v-37h38.79v37z"/><path d="M59.54 16.69a.72.72 0 00-.56-.39.7.7 0 00-.61.26.59.59 0 00-.15.55 4.29 4.29 0 01-1.29-.88 11.63 11.63 0 00-3.68-2.14 8.18 8.18 0 00-2.81-.15 4.6 4.6 0 00-2.13 1 2.06 2.06 0 000 3l.15.18-.09.14a1.22 1.22 0 00.05 1.37c.26.35.33.35.39.35s.22-.28.23-.37a.46.46 0 01.27-.45c.14-.05.25 0 1.15.33a8.4 8.4 0 004.39.08 4.71 4.71 0 012.17 0 1 1 0 01.62.68 1 1 0 01-.28.92c-.22.24-.4.35-1.24.58a6 6 0 01-2.15.16 9.58 9.58 0 00-2.18.12 9.48 9.48 0 01-2.41.08h-1.71l-.34-.46a1.18 1.18 0 01-.18-.51V21l.2.12a.2.2 0 00.23 0c.11-.1.09-.26-.12-.76a1.26 1.26 0 01-.07-.39v-.05a.16.16 0 00.16 0c.06-.05.08-.07.12-1.33.04-1.26 0-1.6-.34-2l-.07-.09.15-.16a2 2 0 00.57-1.08l.13-.8-.64.6a.54.54 0 01-.48.21.43.43 0 01-.41-.18 2.4 2.4 0 00-1-.59.33.33 0 00-.3 0 .24.24 0 00-.09.2 1.44 1.44 0 01-.14.34l-.06.1-.18-.18a1.79 1.79 0 00-.71-.45c-.27-.07-.45-.12-.58 0-.13.12-.12.25-.12.42 0 .17-.06.31-.06.31s-.08 0-.29-.17a1.42 1.42 0 00-1.28-.3l-.67.07.16.41c0 .1 0 .12-.07.27a1 1 0 01-.88.38 1.91 1.91 0 00-.68.12 2.31 2.31 0 01-.58.13l-.47.07a.74.74 0 00-.16-.6.83.83 0 00-.64-.27.79.79 0 00-.67.32 1.15 1.15 0 00-.08 1c0 .12.09.31.12.42a3 3 0 00.62.82c.207.201.4.415.58.64.104.146.241.266.4.35l.54.3-.06-.47c.072.063.149.12.23.17.13.08.25.15.36.09a.23.23 0 00.1-.21.65.65 0 010-.12c.17.27.36.528.57.77l.14.17a7.35 7.35 0 01-2.49-.7c-.67-.3-.88-.36-1-.22a.34.34 0 00-.1.31 1 1 0 00.4.54.66.66 0 00-.23.38l-.2.63-.19.59.65-.06a4.77 4.77 0 00.59-.09l-.32.59.6-.12a2.48 2.48 0 00.49-.16h.07l.09.13c.05.09.22.35.44.3.22-.05.2-.13.23-.3l.05.11c.18.39.36.57.55.55.19-.02.19 0 .22-.26a.51.51 0 01.17-.2.25.25 0 01.17-.07s.07.06.1.14c.03.08 0 .31-.76.78a5 5 0 00-2.53 3.61 3.39 3.39 0 000 1.23c-.21-.23-.5-.52-.92-.93l-1.16-1.13a1 1 0 00.52-.89.81.81 0 00-.61-.72.93.93 0 00-.38 0c0-.34.06-1 .09-2.55.08-4.13.38-7.27.78-8 .1-.18.17-.32.05-.43-.12-.11-.25 0-.58.19a4.26 4.26 0 00-1.38 1.6c-.7 1.32-1 3.12-1 6.86a23.17 23.17 0 00.05 2.35.92.92 0 00-.41 0 .8.8 0 00-.64.69 1 1 0 00.64 1c.147.068.301.118.46.15a.32.32 0 00-.08.29.31.31 0 000 .11.34.34 0 00-.17.1c-.07.08-.13.23 0 .49a.5.5 0 00.22.22.36.36 0 00-.1.36c.032.1.1.186.19.24a.4.4 0 000 .24.43.43 0 00.27.42.5.5 0 000 .23l-.13-.06a.45.45 0 00-.46 0 .42.42 0 00-.07.65.81.81 0 00.62.15.7.7 0 01-.14.21l-.28.31.23.32a.82.82 0 010 .91l-.05.06a.49.49 0 00-.47-.22.4.4 0 00-.3.31c-.07.25 0 .39.25.58a1 1 0 00.55.25.61.61 0 01-.12.12l-.52.4.72.11h.21c.06.22.25.65.45.65s.29-.18.33-.23a.81.81 0 00.15-.42h.21l.73-.1-.54-.43-.11-.1a1.13 1.13 0 00.82-.55.46.46 0 00-.07-.43.47.47 0 00-.45-.15.36.36 0 00-.27.24l-.06-.06a.75.75 0 010-1c.21-.24.17-.35-.05-.56a.8.8 0 01-.19-.31h.11a.53.53 0 00.54 0 .36.36 0 00.14-.43.51.51 0 00-.38-.27.48.48 0 00.27-.14.85.85 0 00.16.15c.16.12.16.12.16.78s0 .84.19 1c.19.16.18.17.3.12a.22.22 0 00.12-.23.33.33 0 01.2-.12c.23.175.447.365.65.57.265.28.572.516.91.7h.25a1.36 1.36 0 00.41-.12 2.79 2.79 0 001-.87 7.7 7.7 0 00.85.52c.202.14.436.226.68.25.07.24.16.51.26.81.53 1.57.35 2-.21 2.35-.19.11-.29.13-.91.13-.62 0-.81 0-1.07.21a1.91 1.91 0 00-.54 1.1.25.25 0 00.12.22c.13.07.3 0 .59-.13l.13-.08a.57.57 0 00.38.21 1 1 0 00.69-.18l.1-.07.07.07a.85.85 0 00.56.2 1 1 0 00.58-.19l.1-.07c.175.111.374.18.58.2.42.05.48 0 .73-.34a.85.85 0 00.18-.74c0-.16-.06-.42-.06-.58a.94.94 0 010-.16c.096-.05.196-.09.3-.12a5.89 5.89 0 00.63-.25c.16-.09.73-.68.73-.9 0-.22-.14-.22-.56-.26-.42-.04-.56-.13-.63-.28-.07-.15 0-.5.29-.93.17-.26.32-.51.46-.76l.28-.06c.15 0 .95-.38 1.61-.68a8 8 0 013.57-1v.28a3.21 3.21 0 00.93 1.94 2.63 2.63 0 01.79 2.23v1l-.16.15c-.15.14-.17.16-.81.2-.64.04-.78.06-1 .26a1.14 1.14 0 00-.43.69.35.35 0 000 .32.28.28 0 00.23.09 1.28 1.28 0 00.52-.21l.17-.11.1.09a.68.68 0 001 0 .63.63 0 00.54.25c.29 0 .44 0 .59-.23l.14.09c.179.127.39.2.61.21a.56.56 0 00.34-.11l.05.05c.15.11.36 0 .63-.16l.14-.09a.57.57 0 00.4.24.85.85 0 00.64-.21l.11-.09.12.09a.87.87 0 00.76.18.64.64 0 00.37-.27c.288.21.647.3 1 .25a.3.3 0 00.23-.17.66.66 0 00-.13-.52 2 2 0 01-.47-1c0-.34.07-.5.53-.84.46-.34.71-.74.62-1a.37.37 0 00-.4-.25c-.2 0-.43-.21-.58-.54-.34-.77-.27-1.63.26-3.1a6.62 6.62 0 00.62-2.89 3 3 0 00-.22-1.49 5.3 5.3 0 00-.54-1l-.21-.29.28-.23a2.1 2.1 0 00.82-1.92 2.15 2.15 0 00-1.35-1.65 2.61 2.61 0 00-1.41-.22 11.61 11.61 0 00-1.62.14 10.87 10.87 0 01-1.57.13c-.76 0-.86 0-1.11-.15-.25-.15-.28-.17-.33-.5a.39.39 0 00-.24-.31c-.21-.07-.61.3-.78.54a1.55 1.55 0 01-.15-.31c-.07-.2-.07-.43.37-.65l.61-.29-.46-.28a1.13 1.13 0 00-.86-.11 1.16 1.16 0 00-.73.5l-.05.08-.16-.15a.74.74 0 01-.24-.7.76.76 0 01.53-.53.63.63 0 01.47 0 .18.18 0 01.09.11c.08.29.28.26.32.25.27-.05.43-.53.38-.89v-.12c.392.08.745.292 1 .6a1.13 1.13 0 010 1.12l-.39.64.62-.12a1.64 1.64 0 001-.65 1.53 1.53 0 00.07-1.3c.253.108.459.303.58.55.117.16.14.37.06.55a1.79 1.79 0 01-.22.49c-.1.13-.18.24-.12.36a.23.23 0 00.22.11 1.6 1.6 0 00.88-.4c.11-.132.197-.28.26-.44.234.335.56.596.94.75.45.19.62.21.7.07.08-.14-.08-.28-.14-.33a2.09 2.09 0 01-.26-.61c.22.16.58.45 1 .84a2.4 2.4 0 001.75.81 1.14 1.14 0 001-.52 1 1 0 00.31-1.09zM34.4 28a.66.66 0 00.26-.07.2.2 0 00.08.06 1 1 0 00-.26 0l-.08.01zm20.85 6a2.2 2.2 0 00-1.2.62 2.55 2.55 0 00-.12-.53c-.14-.43-.1-.66.45-1.31.08-.09.47-.56.47-.77a.3.3 0 00-.08-.23c-.09-.09-.23-.09-.45-.09s-.3 0-.42-.14-.25-.37.05-.75l.2-.25.19.12c1.55 1 1.55 1 1.62 2.08.07 1.08.04 1.11-.71 1.25z"/></svg><svg viewBox="0 0 71 48" id="flag-thailand" xmlns="http://www.w3.org/2000/svg"><rect x=".25" y=".07" width="70" height="47" rx="6.36"/><path d="M.25 9.57h70v28h-70z"/><path d="M.25 13.57h70v20h-70z"/></svg><svg viewBox="0 0 71 48" id="flag-united-kingdom" xmlns="http://www.w3.org/2000/svg"><path d="M30.57.68h-3.13V15l-25-12.5a6.62 6.62 0 00-2 4.24l19.2 9.6h-7L.41 10.23V12l8.73 4.36H.41v3.13H30.6L30.57.68zm37.66 45.21a6.62 6.62 0 002.12-4.19L50.93 32h7l12.46 6.23v-1.75l-9-4.48h9v-3.13H40v18.79h3.13V33.34l25.1 12.55zM43.1.68H40v18.79h30.42v-3.13h-9l9-4.48V6.62l-19.43 9.71h-7L69.36 3.64a6.68 6.68 0 00-1-1.23L43.1 15V.68zM.39 28.86V32h8.73L.39 36.36v5.23l19.2-9.6h7L1.41 44.58a6.66 6.66 0 001 1.24l25-12.49v14.32h3.13V28.86H.39z"/><path d="M70.39 28.86v-9.39H39.97V.68h-9.4v18.79H.39v9.39h30.18v18.79h9.4V28.86z"/><path d="M19.61 16.34L.41 6.74v3.48l12.23 6.11 6.97.01zm31.32 0l19.43-9.71a6.6 6.6 0 00-1.06-3L43.93 16.32l7 .02zm0 15.66l19.42 9.71a6.72 6.72 0 000-.7v-2.78L57.93 32h-7zm-31.32 0L.41 41.6a6.6 6.6 0 001 3L26.62 32h-7.01zM43.1 15L68.26 2.42A6.61 6.61 0 0064.42.68H43.1V15zm27.29 21.47v-4.48h-8.96zm0-20.13v-4.48l-8.96 4.48zM2.46 45.82a6.61 6.61 0 004.57 1.83h20.41V33.33L2.46 45.82zM43.1 33.33v14.32h20.65a6.61 6.61 0 004.48-1.75L43.1 33.33zM27.44.68H6.36A6.61 6.61 0 002.44 2.5l25 12.5V.68zM.39 31.99v4.36l8.72-4.36zm0-20.02v4.37h8.72z"/></svg><svg viewBox="0 0 71 48" id="flag-usa" xmlns="http://www.w3.org/2000/svg"><path d="M7 47.61h57.77A6.64 6.64 0 0070.16 44H1.6A6.64 6.64 0 007 47.61zM.91 40.38v1.34a6.59 6.59 0 00.68 2.27h68.55a6.59 6.59 0 00.68-2.27v-1.34H.91zM.91 36.77h69.92v3.61H.91zM.91 33.16h69.92v3.61H.91z"/><path d="M.91 29.55h69.92v3.61H.91zM.91 25.94h69.92v3.61H.91zM.91 22.33h69.92v3.61H.91zM.91 18.72h69.92v3.61H.91zM.91 15.11h69.92v3.61H.91zM.91 11.49h69.92v3.61H.91zM.91 7.88h69.92v3.61H.91zM70.83 7.88V6.54a6.59 6.59 0 00-.68-2.28H1.6a6.59 6.59 0 00-.68 2.28v1.34h69.91z"/><path d="M64.76.66H7a6.64 6.64 0 00-5.39 3.61h68.55a6.64 6.64 0 00-5.4-3.61z"/><path d="M34.09 25.94V.66H7A6.64 6.64 0 00.93 6.55v19.39h33.16z"/><path d="M5.02 3.72l-.27.84h-.88l.71.51-.27.84.71-.52.71.52-.27-.84.71-.51h-.88zm0 4.24l-.27.84h-.88l.71.52-.27.83.71-.51.71.51-.27-.83.71-.52h-.88zm0 4.24l-.27.84h-.88l.71.52-.27.84.71-.52.71.52-.27-.84.71-.52h-.88zm0 4.25l-.27.83h-.88l.71.52-.27.84.71-.52.71.52-.27-.84.71-.52h-.88zm.27 5.07l-.27-.83-.27.83h-.88l.71.52-.27.84.71-.52.71.52-.27-.84.71-.52zM7.51 5.84l-.27.84h-.88l.71.52-.27.83.71-.52.72.52-.27-.83.71-.52h-.88zm0 4.24l-.27.84h-.88l.71.52-.27.83.71-.51.72.51-.27-.83.71-.52h-.88zm0 4.25l-.27.83h-.88l.71.52-.27.84.71-.52.72.52-.27-.84.71-.52h-.88zm.28 5.07l-.28-.83-.27.83h-.88l.71.52-.27.84.71-.52.72.52-.27-.84.71-.52zm2.22-15.68l-.27.84h-.88l.71.51-.27.84.71-.52.71.52-.27-.84.71-.51h-.88zm0 4.24l-.27.84h-.88l.71.52-.27.83.71-.51.71.51-.27-.83.71-.52h-.88zm0 4.24l-.27.84h-.88l.71.52-.27.84.71-.52.71.52-.27-.84.71-.52h-.88zm0 4.25l-.27.83h-.88l.71.52-.27.84.71-.52.71.52-.27-.84.71-.52h-.88zm.27 5.07l-.27-.83-.27.83h-.88l.71.52-.27.84.71-.52.71.52-.27-.84.71-.52zM12.5 5.84l-.27.84h-.88l.71.52-.27.83.71-.52.72.52-.27-.83.71-.52h-.88zm0 4.24l-.27.84h-.88l.71.52-.27.83.71-.51.72.51-.27-.83.71-.52h-.88zm0 4.25l-.27.83h-.88l.71.52-.27.84.71-.52.72.52-.27-.84.71-.52h-.88zm.28 5.07l-.28-.83-.27.83h-.88l.71.52-.27.84.71-.52.72.52-.27-.84.71-.52zM15 3.72l-.27.84h-.88l.71.51-.27.84.71-.52.71.52-.27-.84.71-.51h-.88zm0 4.24l-.27.84h-.88l.71.52-.27.83.71-.51.71.51-.27-.83.71-.52h-.88zm0 4.24l-.27.84h-.88l.71.52-.27.84.71-.52.71.52-.27-.84.71-.52h-.88zm0 4.25l-.27.83h-.88l.71.52-.27.84.71-.52.71.52-.27-.84.71-.52h-.88zm.27 5.07l-.27-.83-.27.83h-.88l.71.52-.27.84.71-.52.71.52-.27-.84.71-.52zm2.22-15.68l-.27.84h-.88l.71.52-.27.83.71-.52.72.52-.28-.83.72-.52h-.88zm0 4.24l-.27.84h-.88l.71.52-.27.83.71-.51.72.51-.28-.83.72-.52h-.88zm0 4.25l-.27.83h-.88l.71.52-.27.84.71-.52.72.52-.28-.84.72-.52h-.88zm.28 5.07l-.28-.83-.27.83h-.88l.71.52-.27.84.71-.52.72.52-.28-.84.72-.52zm2.22-15.68l-.27.84h-.88l.71.51-.27.84.71-.52.71.52-.27-.84.71-.51h-.88zm0 4.24l-.27.84h-.88l.71.52-.27.83.71-.51.71.51-.27-.83.71-.52h-.88zm0 4.24l-.27.84h-.88l.71.52-.27.84.71-.52.71.52-.27-.84.71-.52h-.88zm0 4.25l-.27.83h-.88l.71.52-.27.84.71-.52.71.52-.27-.84.71-.52h-.88zm.27 5.07l-.27-.83-.27.83h-.88l.71.52-.27.84.71-.52.71.52-.27-.84.71-.52zm2.22-15.68l-.27.84h-.88l.71.52-.27.83.71-.52.72.52-.28-.83.72-.52h-.88zm0 4.24l-.27.84h-.88l.71.52-.27.83.71-.51.72.51-.28-.83.72-.52h-.88zm0 4.25l-.27.83h-.88l.71.52-.27.84.71-.52.72.52-.28-.84.72-.52h-.88zm.28 5.07l-.28-.83-.27.83h-.88l.71.52-.27.84.71-.52.72.52-.28-.84.72-.52zm2.22-15.68l-.27.84h-.88l.71.51-.27.84.71-.52.71.52-.27-.84.71-.51h-.88zm0 4.24l-.27.84h-.88l.71.52-.27.83.71-.51.71.51-.27-.83.71-.52h-.88zm0 4.24l-.27.84h-.88l.71.52-.27.84.71-.52.71.52-.27-.84.71-.52h-.88zm0 4.25l-.27.83h-.88l.71.52-.27.84.71-.52.71.52-.27-.84.71-.52h-.88zm.27 5.07l-.27-.83-.27.83h-.88l.71.52-.27.84.71-.52.71.52-.27-.84.71-.52zm2.22-15.68l-.27.84h-.88l.71.52-.27.83.71-.52.72.52-.28-.83.72-.52h-.88zm0 4.24l-.27.84h-.88l.71.52-.27.83.71-.51.72.51-.28-.83.72-.52h-.88zm0 4.25l-.27.83h-.88l.71.52-.27.84.71-.52.72.52-.28-.84.72-.52h-.88zm.28 5.07l-.28-.83-.27.83h-.88l.71.52-.27.84.71-.52.72.52-.28-.84.72-.52zm1.78-14.33l-.27.84.71-.52.71.52-.27-.84.71-.51h-.88l-.27-.84-.27.84h-.88zm.44 2.89l-.27.84h-.88l.71.52-.27.83.71-.51.71.51-.27-.83.71-.52h-.88zm0 4.24l-.27.84h-.88l.71.52-.27.84.71-.52.71.52-.27-.84.71-.52h-.88zm0 4.25l-.27.83h-.88l.71.52-.27.84.71-.52.71.52-.27-.84.71-.52h-.88zm.27 5.07l-.27-.83-.27.83h-.88l.71.52-.27.84.71-.52.71.52-.27-.84.71-.52z"/></svg><svg viewBox="0 0 9 19" id="form-arrow-back" xmlns="http://www.w3.org/2000/svg"><path d="M8.812.4a1.064 1.064 0 00-.345-.26.958.958 0 00-.814 0c-.13.06-.246.149-.345.26L.248 8.373a.972.972 0 00-.183.31 1.063 1.063 0 000 .732.972.972 0 00.183.31l7.06 7.972a.978.978 0 001.504 0c.416-.47.071-.964-.345-1.434l-3.718-4.178-2.62-3.067 6.692-7.714s.407-.442-.01-.902z"/></svg><svg viewBox="0 0 8 11" id="form-arrow-down" xmlns="http://www.w3.org/2000/svg"><path d="M3.646 10.354a.5.5 0 00.708 0l3.182-3.182a.5.5 0 10-.708-.708L4 9.293 1.172 6.464a.5.5 0 10-.708.708l3.182 3.182zM3.5 0v10h1V0h-1z"/></svg><svg viewBox="0 0 1 70" id="form-border-fade-tablet" xmlns="http://www.w3.org/2000/svg"><path d="M.5 70V0M.5 70V0"/><defs><linearGradient id="bqpaint0_linear" x1=".5" y1="12" x2="1" y2="70" gradientUnits="userSpaceOnUse"><stop stop-color="#E1E3E9"/><stop offset="1" stop-color="#fff"/></linearGradient></defs></svg><svg viewBox="0 0 1 326" id="form-border-tablet" xmlns="http://www.w3.org/2000/svg"><path d="M.5 326V0"/></svg><svg viewBox="0 0 5 5" id="form-bullet" xmlns="http://www.w3.org/2000/svg"><circle cx="2.5" cy="2.5" r="2.5" transform="rotate(-90 2.5 2.5)"/></svg><svg viewBox="0 0 24 22" id="form-delete-button-tablet" xmlns="http://www.w3.org/2000/svg"><g opacity=".1"><path d="M21 2.75L3 19.25M3 2.75l18 16.5"/></g></svg><svg viewBox="0 0 14 274" id="form-direction-border-tablet" xmlns="http://www.w3.org/2000/svg"><circle cx="7" cy="7" r="7"/><circle cx="7" cy="267" r="7"/><path d="M7 13v248"/></svg><svg viewBox="0 0 17 287" id="form-direction-line-mobile" xmlns="http://www.w3.org/2000/svg"><circle cx="14" cy="3" r="3"/><circle cx="14" cy="284" r="3"/><path d="M2 2h11v2H2zM0 283h12v2H0z"/><path d="M0 285V2h2v283z"/></svg><svg viewBox="0 0 12 16" id="form-dropdown" xmlns="http://www.w3.org/2000/svg"><path d="M.638 5.098a.862.862 0 00-.162.275.946.946 0 000 .649.861.861 0 00.162.274l4.96 5.627c.056.063.121.113.193.147a.534.534 0 00.456 0 .594.594 0 00.193-.147l4.96-5.627a.928.928 0 000-1.198c-.293-.332-.6-.057-.892.275l-2.6 2.963L6 10.424 1.2 5.091s-.275-.325-.562.007z" opacity=".3"/></svg><svg viewBox="0 0 14 2" id="form-minus" xmlns="http://www.w3.org/2000/svg"><path d="M0 1h14"/></svg><svg viewBox="0 0 14 14" id="form-plus" xmlns="http://www.w3.org/2000/svg"><path d="M0 6.7h14M6.7 14V0"/></svg><svg viewBox="0 0 14 14" id="form-plus-quantity" xmlns="http://www.w3.org/2000/svg"><path d="M0 6.7h14M6.7 14V0"/></svg><svg viewBox="0 0 44 2" id="header-dash-desktop-blue" xmlns="http://www.w3.org/2000/svg"><path d="M0 0h44v2H0z"/></svg><svg viewBox="0 0 60 2" id="header-dash-desktop-white" xmlns="http://www.w3.org/2000/svg"><path d="M0 0h60v2H0z"/></svg><svg viewBox="0 0 20 17" id="heart" xmlns="http://www.w3.org/2000/svg"><path d="M18.5 1.5c-2-2-5.3-2-7.3 0L10 2.7 8.8 1.5c-2-2-5.3-2-7.3 0s-2 5.2 0 7.2l1.2 1.2L10 17l7.3-7.2 1.2-1.2c2-1.9 2-5.1 0-7.1zm-3.6 8.3L10 14.6 5.1 9.8 2.7 7.5C1.4 6.1 1.4 4 2.7 2.7c1.3-1.3 3.5-1.3 4.9 0L10 5.1l2.4-2.4c1.3-1.3 3.5-1.3 4.9 0 1.3 1.3 1.3 3.5 0 4.8l-2.4 2.3z"/></svg><svg viewBox="0 0 13 11" id="heart-active" xmlns="http://www.w3.org/2000/svg"><path d="M12 1a3.32 3.32 0 00-4.7 0l-.8.7-.8-.7A3.32 3.32 0 001 1C-.3 2.3-.3 4.4 1 5.6l.8.8L6.5 11l4.7-4.6.8-.8c1.3-1.3 1.3-3.4 0-4.6z"/></svg><svg viewBox="0 0 27 34" id="htmlacademy" xmlns="http://www.w3.org/2000/svg"><path d="M13.6 0h-.2L0 1.4V26l13.5 8L27 26V1.4L13.6 0zm5.7 16.8l-.9.5-5-3v1.4l3.8 2.3-.8.5-3-1.8v1.4l1.9 1.1-1.8 1.1L2 13.6l11.4-6.8L25 13.5l-4.5 2.6-7.1-4.2v1.4l5.9 3.5zM1.9 15.1l11.4 6.8v1l-8-4.7v1.4l8 4.8v1.1l-8-4.7v1.4l8 4.8 8.2-4.9V17l3.4-2v10l-11.6 6.9-11.4-7v-9.8zm0-3v-9l11.6-1.2 11.6 1.2v9L13.5 5.3v-.1h-.2v.1L1.9 12.1z"/></svg><svg viewBox="0 0 32 16" id="icon-back" xmlns="http://www.w3.org/2000/svg"><path fill-rule="evenodd" clip-rule="evenodd" d="M4 16h24a4 4 0 004-4V7a4 4 0 00-4-4H4v2h24a2 2 0 012 2v5a2 2 0 01-2 2H4v2z"/><path d="M0 4L9 .536v6.928L0 4z"/></svg><svg viewBox="0 0 19 19" id="icon-call" xmlns="http://www.w3.org/2000/svg"><path d="M9.774 8.224c0 .189.154.337.342.337a.7.7 0 01.703.696.34.34 0 00.341.337.34.34 0 00.342-.337 1.38 1.38 0 00-1.386-1.37.34.34 0 00-.342.337zm5.558 1.37a.338.338 0 00.341-.337c0-3.031-2.492-5.495-5.557-5.495a.34.34 0 00-.342.338.34.34 0 00.342.337c2.69 0 4.875 2.164 4.875 4.82a.34.34 0 00.341.337z"/><path d="M12.905 9.257a.34.34 0 00.341.337.34.34 0 00.341-.337c0-1.894-1.556-3.433-3.471-3.433a.34.34 0 00-.342.338c0 .189.154.337.342.337 1.54 0 2.789 1.239 2.789 2.758zM10.115 1.7a.34.34 0 00-.34.337.34.34 0 00.34.338c3.841 0 6.965 3.088 6.965 6.882 0 .185.15.337.341.337a.34.34 0 00.342-.337c0-4.168-3.431-7.557-7.647-7.557zm3.336 11.114l-.447.24c-.755.408-1.342 1.527-2.273.684L8.301 11.3 6.2 9.257c-1.055-1.334.126-1.65.54-2.4l.242-.439c.273-.5.372-1.06.29-1.62a2.557 2.557 0 00-.744-1.475 2.636 2.636 0 00-1.868-.762c-.706 0-1.372.27-1.87.762l-.174.176c-.922.911-1.028 2.48-.3 4.424C3 9.78 4.383 11.791 6.2 13.587c2.769 2.737 5.851 4.313 8.063 4.313.874 0 1.615-.246 2.14-.766l.178-.176c.495-.489.772-1.144.775-1.85a2.636 2.636 0 00-.775-1.845 2.683 2.683 0 00-3.13-.45z"/></svg><svg viewBox="0 0 19 17" id="icon-mail" xmlns="http://www.w3.org/2000/svg"><path d="M2.017 3.325l6.75 4.23c.226.142.52.21.815.21.295 0 .589-.068.815-.21l6.75-4.23c.44-.276.856-1.35.049-1.35H1.969c-.807 0-.392 1.074.048 1.35zm15.335 2.313l-6.955 4.229c-.306.187-.52.209-.815.209-.295 0-.51-.022-.815-.21-.306-.186-6.42-3.925-6.92-4.229-.35-.214-.347.037-.347.23v7.658c0 .441.51 1.05.9 1.05h14.4c.39 0 .9-.609.9-1.05V5.868c0-.193.004-.444-.348-.23z"/></svg><svg viewBox="0 0 18 18" id="icon-plus-more" xmlns="http://www.w3.org/2000/svg"><rect y="8.308" width="18" height="1.385" rx=".692"/><rect x="8.308" y="18" width="18" height="1.385" rx=".692" transform="rotate(-90 8.308 18)"/></svg><svg viewBox="0 0 40 40" id="icon_mail_btn" xmlns="http://www.w3.org/2000/svg"><circle cx="20" cy="20" r="20"/><path d="M12.017 15.325l6.75 4.23c.226.143.52.21.815.21.295 0 .589-.067.815-.21l6.75-4.23c.44-.276.856-1.35.049-1.35H11.969c-.807 0-.392 1.074.048 1.35zm15.335 2.313l-6.955 4.229c-.306.187-.52.209-.815.209-.295 0-.51-.022-.815-.21-.306-.186-6.42-3.925-6.92-4.229-.35-.214-.347.037-.347.23v7.658c0 .441.51 1.05.9 1.05h14.4c.39 0 .9-.609.9-1.05v-7.657c0-.193.004-.444-.348-.23z"/></svg><svg viewBox="0 0 25 11" id="icon_menu_mobile" xmlns="http://www.w3.org/2000/svg"><rect width="25" height="3" rx="1.5"/><rect y="8" width="25" height="3" rx="1.5"/></svg><svg viewBox="0 0 25 11" id="icon_menu_mobile-grey" xmlns="http://www.w3.org/2000/svg"><rect width="25" height="3" rx="1.5"/><rect y="8" width="25" height="3" rx="1.5"/></svg><svg viewBox="0 0 19 20" id="icon_menu_mobile_close" xmlns="http://www.w3.org/2000/svg"><rect width="23.891" height="2.032" rx="1.016" transform="matrix(.69604 .718 -.69604 .718 1.972 .988)"/><rect width="23.891" height="2.032" rx="1.016" transform="matrix(.69604 -.718 .69604 .718 -.4 17.754)"/></svg><svg viewBox="0 0 40 40" id="icon_phone_btn" xmlns="http://www.w3.org/2000/svg"><circle cx="20" cy="20" r="20"/><path d="M19.774 19.224c0 .189.154.337.342.337a.7.7 0 01.703.696.34.34 0 00.341.337.34.34 0 00.342-.337 1.38 1.38 0 00-1.386-1.37.34.34 0 00-.342.337zm5.558 1.37a.338.338 0 00.341-.337c0-3.031-2.492-5.495-5.557-5.495a.34.34 0 00-.342.338.34.34 0 00.342.337c2.69 0 4.875 2.164 4.875 4.82a.34.34 0 00.341.337z"/><path d="M22.905 20.257a.34.34 0 00.341.337.34.34 0 00.341-.337c0-1.894-1.556-3.433-3.471-3.433a.34.34 0 00-.342.338c0 .189.154.337.342.337 1.54 0 2.789 1.239 2.789 2.758zm-2.79-7.557a.34.34 0 00-.34.338.34.34 0 00.34.337c3.841 0 6.965 3.088 6.965 6.882 0 .185.15.337.341.337a.34.34 0 00.342-.337c0-4.169-3.431-7.557-7.647-7.557zm3.336 11.114l-.447.24c-.755.408-1.342 1.527-2.273.684l-2.43-2.438-2.101-2.043c-1.055-1.334.126-1.65.54-2.4l.242-.439c.273-.5.372-1.06.29-1.62a2.558 2.558 0 00-.744-1.475 2.636 2.636 0 00-1.868-.762c-.706 0-1.372.27-1.87.762l-.174.176c-.922.911-1.028 2.48-.3 4.425.685 1.856 2.068 3.867 3.884 5.663 2.769 2.737 5.851 4.313 8.063 4.313.874 0 1.615-.246 2.14-.766l.178-.176c.495-.489.772-1.144.775-1.85a2.636 2.636 0 00-.775-1.845 2.683 2.683 0 00-3.13-.45z"/></svg><svg version="1.1" id="instagram" x="0" y="0" viewBox="0 0 23 23" xml:space="preserve" xmlns="http://www.w3.org/2000/svg"><style>.cost0{fill:#231f20}</style><path class="cost0" d="M17 1.5c2.5 0 4.5 2 4.5 4.5v11c0 2.5-2 4.5-4.5 4.5H6c-2.5 0-4.5-2-4.5-4.5V6c0-2.5 2-4.5 4.5-4.5h11M17 0H6C2.7 0 0 2.7 0 6v11c0 3.3 2.7 6 6 6h11c3.3 0 6-2.7 6-6V6c0-3.3-2.7-6-6-6z"/><path class="cost0" d="M11.5 7.1c2.4 0 4.4 2 4.4 4.4 0 2.4-2 4.4-4.4 4.4-2.4 0-4.4-2-4.4-4.4 0-2.4 2-4.4 4.4-4.4m0-1.5c-3.3 0-5.9 2.7-5.9 5.9s2.7 5.9 5.9 5.9 5.9-2.7 5.9-5.9-2.6-5.9-5.9-5.9z"/><circle class="cost0" cx="17.6" cy="5.4" r="1.3"/></svg><svg viewBox="0 0 16 35" id="level-input-med" xmlns="http://www.w3.org/2000/svg"><path d="M8.5 22.826V35M8.5 0v12.174M0 17h16"/></svg><svg viewBox="0 0 31 30" id="like" xmlns="http://www.w3.org/2000/svg"><ellipse cx="15.319" cy="15.371" rx="15.319" ry="14.581"/><g clip-path="url(#cqclip0)"><path fill-rule="evenodd" clip-rule="evenodd" d="M15.32 14.277l.684-1.37c.17-.34.465-.827.882-1.221.41-.389.903-.653 1.497-.653 1.284 0 2.298 1.016 2.298 2.236 0 .928-.424 1.582-1.43 2.58-.259.256-.553.533-.879.838-.848.796-1.904 1.787-3.053 3.112-1.149-1.325-2.204-2.316-3.053-3.112-.325-.305-.62-.582-.878-.837-1.006-.999-1.43-1.653-1.43-2.58 0-1.221 1.014-2.237 2.297-2.237.595 0 1.086.264 1.497.653.417.394.712.882.882 1.221l.685 1.37zm.3 6.35a.392.392 0 01-.601 0c-1.226-1.457-2.336-2.498-3.25-3.355-1.582-1.485-2.577-2.418-2.577-4.003 0-1.658 1.37-3.001 3.063-3.001 1.226 0 2.083.804 2.608 1.537.199.28.35.548.456.76.133-.265.285-.519.457-.76.524-.734 1.381-1.537 2.607-1.537 1.693 0 3.064 1.343 3.064 3.001 0 1.585-.996 2.518-2.578 4.003-.913.857-2.023 1.899-3.25 3.354z" opacity=".5"/></g><defs><clipPath id="cqclip0"><path transform="translate(9.192 9.539)" d="M0 0h12.255v11.665H0z"/></clipPath></defs></svg><svg viewBox="0 0 31 31" id="like-active" xmlns="http://www.w3.org/2000/svg"><circle cx="15.319" cy="15.681" r="15.319"/><g clip-path="url(#crclip0)"><path d="M12.255 10.32c1.693 0 3.064 1.343 3.064 3.002 0-1.659 1.371-3.003 3.064-3.003s3.064 1.344 3.064 3.003c0 2.499-2.477 3.38-5.828 7.359a.392.392 0 01-.6 0c-3.35-3.978-5.827-4.86-5.827-7.36 0-1.658 1.37-3.002 3.063-3.002z"/></g><defs><clipPath id="crclip0"><path transform="translate(9.192 9.553)" d="M0 0h12.255v12.255H0z"/></clipPath></defs></svg><svg viewBox="0 0 31 31" id="like-active-hover" xmlns="http://www.w3.org/2000/svg"><circle cx="15.319" cy="15.681" r="15.319"/><g clip-path="url(#csclip0)"><path d="M12.255 10.32c1.693 0 3.064 1.343 3.064 3.002 0-1.659 1.371-3.003 3.064-3.003s3.064 1.344 3.064 3.003c0 2.499-2.477 3.38-5.828 7.359a.392.392 0 01-.6 0c-3.35-3.978-5.827-4.86-5.827-7.36 0-1.658 1.37-3.002 3.063-3.002z"/></g><defs><clipPath id="csclip0"><path transform="translate(9.192 9.553)" d="M0 0h12.255v12.255H0z"/></clipPath></defs></svg><svg viewBox="0 0 31 30" id="like-hover" xmlns="http://www.w3.org/2000/svg"><ellipse cx="15.319" cy="15.371" rx="15.319" ry="14.581"/><g clip-path="url(#ctclip0)"><path fill-rule="evenodd" clip-rule="evenodd" d="M15.32 14.277l.684-1.37c.17-.34.465-.827.882-1.221.41-.389.903-.653 1.497-.653 1.284 0 2.298 1.016 2.298 2.236 0 .928-.424 1.582-1.43 2.58-.259.256-.553.533-.879.838-.848.796-1.904 1.787-3.053 3.112-1.149-1.325-2.204-2.316-3.053-3.112-.325-.305-.62-.582-.878-.837-1.006-.999-1.43-1.653-1.43-2.58 0-1.221 1.014-2.237 2.297-2.237.595 0 1.086.264 1.497.653.417.394.712.882.882 1.221l.685 1.37zm.3 6.35a.392.392 0 01-.601 0c-1.226-1.457-2.336-2.498-3.25-3.355-1.582-1.485-2.577-2.418-2.577-4.003 0-1.658 1.37-3.001 3.063-3.001 1.226 0 2.083.804 2.608 1.537.199.28.35.548.456.76.133-.265.285-.519.457-.76.524-.734 1.381-1.537 2.607-1.537 1.693 0 3.064 1.343 3.064 3.001 0 1.585-.996 2.518-2.578 4.003-.913.857-2.023 1.899-3.25 3.354z" opacity=".5"/></g><defs><clipPath id="ctclip0"><path transform="translate(9.192 9.539)" d="M0 0h12.255v11.665H0z"/></clipPath></defs></svg><svg viewBox="0 0 45 45" id="map-mark" xmlns="http://www.w3.org/2000/svg"><circle cx="22.5" cy="22.5" r="22.5"/><path d="M22.5 12a7.876 7.876 0 00-7.875 7.875c0 5.058 3.804 7.27 4.644 8.279C21.29 30.577 21.403 33 22.5 33s1.212-2.423 3.23-4.846c.841-1.01 4.645-3.22 4.645-8.279A7.876 7.876 0 0022.5 12zm0 13.125a5.25 5.25 0 110-10.5 5.25 5.25 0 010 10.5zm0-7.875a2.626 2.626 0 000 5.25 2.626 2.626 0 000-5.25z"/><circle cx="22.5" cy="19.875" r=".875"/></svg><svg viewBox="0 0 90 90" id="map-mark-desktop" xmlns="http://www.w3.org/2000/svg"><circle cx="45" cy="45" r="45"/><path d="M45 24c-8.697 0-15.75 7.053-15.75 15.75 0 10.117 7.607 14.54 9.288 16.558C42.578 61.154 42.806 66 45 66c2.195 0 2.423-4.846 6.462-9.692 1.681-2.018 9.288-6.441 9.288-16.558C60.75 31.053 53.697 24 45 24zm0 26.25c-5.799 0-10.5-4.701-10.5-10.5s4.701-10.5 10.5-10.5 10.5 4.701 10.5 10.5-4.701 10.5-10.5 10.5zm0-15.75a5.252 5.252 0 00-5.25 5.25A5.252 5.252 0 0045 45a5.252 5.252 0 005.25-5.25A5.252 5.252 0 0045 34.5z"/><circle cx="45" cy="39.75" r="1.75"/></svg><svg viewBox="0 0 68 68" id="map-mark-tablet" xmlns="http://www.w3.org/2000/svg"><circle cx="34" cy="34" r="34"/><g clip-path="url(#cwclip0)"><path d="M34 18.133c-6.57 0-11.9 5.33-11.9 11.9 0 7.644 5.747 10.986 7.018 12.51 3.051 3.662 3.224 7.324 4.882 7.324 1.658 0 1.83-3.662 4.882-7.323 1.27-1.525 7.018-4.867 7.018-12.51 0-6.572-5.33-11.9-11.9-11.9zm0 19.834a7.934 7.934 0 110-15.868 7.934 7.934 0 010 15.868zm0-11.9a3.968 3.968 0 00-3.967 3.966A3.968 3.968 0 0034 34a3.968 3.968 0 003.967-3.967A3.968 3.968 0 0034 26.067z"/><circle cx="34" cy="30.033" r="1.322"/></g><defs><clipPath id="cwclip0"><path transform="translate(18.133 18.133)" d="M0 0h31.733v31.733H0z"/></clipPath></defs></svg><svg viewBox="-9 -9 54 54" id="map-marker" xmlns="http://www.w3.org/2000/svg"><circle cx="18" cy="18" r="13.5"/><circle cx="18" cy="18" r="6"/></svg><svg viewBox="0 0 25 11" id="menu" xmlns="http://www.w3.org/2000/svg"><path d="M1.5 3h22c.8 0 1.5-.7 1.5-1.5S24.3 0 23.5 0h-22C.7 0 0 .7 0 1.5S.7 3 1.5 3zm22 5h-22C.7 8 0 8.7 0 9.5S.7 11 1.5 11h22c.8 0 1.5-.7 1.5-1.5S24.3 8 23.5 8z"/></svg><svg viewBox="0 0 18 18" id="menu-close" xmlns="http://www.w3.org/2000/svg"><path d="M10.3 9l7.4-7.4c.4-.4.4-.9 0-1.3s-.9-.4-1.3 0L9 7.7 1.6.3C1.2-.1.7-.1.3.3s-.4.9 0 1.3L7.7 9 .3 16.4c-.4.4-.4.9 0 1.3s.9.4 1.3 0L9 10.3l7.4 7.4c.4.4.9.4 1.3 0s.4-.9 0-1.3L10.3 9z"/></svg><svg viewBox="0 0 18 34" id="month-arrow-left" xmlns="http://www.w3.org/2000/svg"><path d="M3.6 17l14-14.4c.6-.6.6-1.6 0-2.1-.6-.6-1.5-.6-2.1 0L.4 15.9c-.6.6-.6 1.6 0 2.1l15.1 15.5c.3.3.7.4 1 .4s.8-.1 1-.4c.6-.6.6-1.6 0-2.1L3.6 17z"/></svg><svg viewBox="0 0 18 34" id="month-arrow-right" xmlns="http://www.w3.org/2000/svg"><path d="M14.4 17L.4 2.6C-.1 2-.1 1 .4.4 1-.2 1.9-.2 2.5.4l15.1 15.5c.6.6.6 1.6 0 2.1L2.5 33.6c-.3.3-.7.4-1 .4s-.8-.1-1-.4c-.6-.6-.6-1.6 0-2.1L14.4 17z"/></svg><svg viewBox="0 0 6 7" id="offline" xmlns="http://www.w3.org/2000/svg"><circle cx="3" cy="3.5" r="3"/></svg><svg viewBox="0 0 6 7" id="online" xmlns="http://www.w3.org/2000/svg"><circle cx="3" cy="3.5" r="3"/></svg><svg viewBox="0 0 68 68" id="open-buisness" xmlns="http://www.w3.org/2000/svg"><circle cx="34" cy="34" r="34"/><path d="M43.376 43.242v-3.349c0-.937-.134-1.875-.67-2.812-.536-.938-1.205-1.742-2.143-2.277-.938-.67-2.947-.804-3.884-.804l-2.143 2.277.803 1.741v4.018L34 43.51l-1.34-1.474v-4.018l.938-1.741L31.321 34c-1.071 0-3.08.134-4.018.804-.938.535-1.473 1.339-2.009 2.277-.536.937-.67 1.74-.67 2.812v3.349s3.483 1.473 9.376 1.473c5.893 0 9.376-1.473 9.376-1.473zM34 23.419c-2.545 0-4.018 2.41-3.616 5.09.401 2.678 1.74 4.554 3.616 4.554 1.875 0 3.215-1.876 3.616-4.554.402-2.813-1.071-5.09-3.616-5.09z"/></svg><svg viewBox="0 0 10 18" id="page-arrow-left" xmlns="http://www.w3.org/2000/svg"><path d="M0 9L9.75.34v17.32L0 9z"/></svg><svg viewBox="0 0 19 21" id="plane" xmlns="http://www.w3.org/2000/svg"><path d="M18.9 18.9c-.1-.3-3.7-10.1-3.7-10.1-.1-.5.1-.7.3-1.1 0 0 2.1-3.5 2.8-4.6.7-1.2.6-2.3-.1-2.8s-1.7-.1-2.5 1-3 4.5-3 4.5c-.3.4-.4.7-.9.8-.1-.1-10.3.4-10.6.4-.3 0-.7.1-1 .6-.4.7-.2.9.2 1 0 0 8 2.6 8.3 2.7.3 0 .3.2.2.6-.2.4-1.4 2.3-1.6 2.6-.1.2-.2.2-.4.3l-2.8 1c-.1 0-.3.1-.4.3l-.4.6c-.2.3-.1.5.2.5.3.1 2.1.2 2.1.2s.3.1.4.1c.2.1.4.3.2.6-.3.6-.4 1.2-.2 1.3s.6-.2 1-.7c.2-.3.4-.2.6 0 .2-.1.4.1.4.1s.8 1.6 1 1.9c.2.3.4.3.6 0l.4-.6c.1-.1.1-.3.1-.5l-.3-3.1c0-.2 0-.2.1-.5.1-.2 1.4-2.2 1.6-2.5.2-.3.4-.3.6-.1.2.2 5.7 6.7 5.7 6.7.3.3.5.4.9-.2.4-.4.3-.8.2-1z"/></svg><svg viewBox="0 0 11 12" id="polygon" xmlns="http://www.w3.org/2000/svg"><path d="M10.07 6.075l-9.913 5.63V.444l9.913 5.63z"/></svg><svg viewBox="0 0 11 12" id="polygon-white" xmlns="http://www.w3.org/2000/svg"><path d="M10.07 6.075l-9.913 5.63V.444l9.913 5.63z"/></svg><svg viewBox="0 0 446 300" id="price-list-back-desktop" xmlns="http://www.w3.org/2000/svg"><rect width="446" height="300" rx="20"/></svg><svg version="1.1" id="qty-minus" x="0" y="0" viewBox="0 0 20 2" xml:space="preserve" xmlns="http://www.w3.org/2000/svg"><style>.dkst0{fill:#606161}</style><path class="dkst0" d="M0 0h20v2H0z"/><path class="dkst0" d="M0 0h20v2H0z"/></svg><svg viewBox="0 0 14 2" id="qty-minus-mobile" xmlns="http://www.w3.org/2000/svg"><path d="M0 0h14v2H0z"/></svg><svg viewBox="0 0 20 20" id="qty-plus" xmlns="http://www.w3.org/2000/svg"><path d="M20 9h-9V0H9v9H0v2h9v9h2v-9h9z"/></svg><svg viewBox="0 0 14 14" id="qty-plus-mobile" xmlns="http://www.w3.org/2000/svg"><path d="M8 6V0H6v6H0v2h6v6h2V8h6V6z"/></svg><svg viewBox="0 0 12 14" id="reg-arrow" xmlns="http://www.w3.org/2000/svg"><path d="M12 7L0 13.062V.938L12 7z"/></svg><svg viewBox="0 0 32 16.1" id="return" xmlns="http://www.w3.org/2000/svg"><path d="M27.6 2.1H10V0L0 3l10 2.9V4.1h17.6c.4 0 2.4 0 2.4 2v6.1c0 .5-.1.9-.4 1.2-.6.6-1.6.7-2 .7H4v2h23.7c.4 0 2.1-.1 3.2-1.2.7-.7 1.1-1.6 1.1-2.7V6.1c0-2-2.6-4-4.4-4z"/></svg><svg viewBox="0 0 20 21" id="run" xmlns="http://www.w3.org/2000/svg"><ellipse cx="14.3" cy="2" rx="2.1" ry="2"/><path d="M19.4 4.6c-.5-.2-1.2-.1-1.4.4l-.9 1.6L13 4.3c-.2-.1-.3-.1-.6-.1H7.9c-.4 0-.7.1-.9.5L5.3 7.6c-.3.5-.1 1.1.4 1.3.2.1.4.1.5.1.4 0 .8-.2 1-.5l1.4-2.4h1.6l-4.7 8.1H1.1c-.6 0-1.1.4-1.1 1s.5 1 1.1 1h5c.4 0 .7-.2.9-.5l1.9-3.2 3 2.6-.2 4.9c-.1.5.4 1 1 1h.1c.6 0 1-.4 1.1-.9l.3-5.4c0-.3-.1-.6-.3-.8l-2.6-2.2L14 7.1l3.1 1.8c0 .1.4.2.6.1.3-.1.5-.2.7-.5L19.9 6c.3-.5.1-1.1-.5-1.4z"/></svg><svg viewBox="0 0 212 212" id="service-back-desktop" xmlns="http://www.w3.org/2000/svg"><rect width="212" height="212" rx="20"/></svg><svg viewBox="0 0 688 212" id="service-tablet" xmlns="http://www.w3.org/2000/svg"><rect width="688" height="212" rx="20"/></svg><svg viewBox="0 0 27 27" id="show-more-plus" xmlns="http://www.w3.org/2000/svg"><path d="M25.5 12H15V1.5c0-.8-.7-1.5-1.5-1.5S12 .7 12 1.5V12H1.5c-.8 0-1.5.7-1.5 1.5S.7 15 1.5 15H12v10.5c0 .8.7 1.5 1.5 1.5s1.5-.7 1.5-1.5V15h10.5c.8 0 1.5-.7 1.5-1.5s-.7-1.5-1.5-1.5z"/></svg><svg viewBox="0 0 5 10" id="small-arrow" xmlns="http://www.w3.org/2000/svg"><path d="M3 8.1V0H2v8.1l-2-2v1.4L2.5 10 5 7.5V6.1z"/></svg><svg viewBox="0 0 9 9" id="small-cross" xmlns="http://www.w3.org/2000/svg"><path d="M5.2 4.5L8.9.8c.1-.2.1-.5 0-.7s-.5-.1-.7 0L4.5 3.8.8.1C.6 0 .3 0 .1.1S0 .6.1.8l3.7 3.7L.1 8.2c-.1.2-.1.5 0 .7.1.1.3.1.4.1s.2 0 .3-.1l3.7-3.7 3.7 3.7c.1.1.2.1.3.1s.2 0 .3-.1c.2-.2.2-.5.1-.7L5.2 4.5z"/></svg><svg viewBox="0 0 12 12" id="tick" xmlns="http://www.w3.org/2000/svg"><path d="M12 0L3.8 8 0 4.3v4L3.8 12 12 4z"/></svg><svg version="1.1" id="topmenu-mail" x="0" y="0" viewBox="0 0 18 14" xml:space="preserve" xmlns="http://www.w3.org/2000/svg"><style>.dxst0{fill:#231f20}</style><path class="dxst0" d="M14.9 1.8c1.2-1 .9-1.8-.7-1.8H3.7c-1.5 0-1.8.8-.6 1.8l3.7 3.1c1.2 1 3.2 1 4.4 0l3.7-3.1z"/><path class="dxst0" d="M11.9 7.1c-1.2 1-2.2 1.8-2.2 1.8-.1.1-.2.1-.3.1h-.1c-.1.1-.2.1-.3.1-.1 0-.2 0-.3-.1h-.1c-.1 0-.2 0-.3-.1 0 0-1-.8-2.2-1.8L2.2 3.8C1 2.8 0 3.3 0 4.8v6.3C0 12.7 1.3 14 2.8 14h12.3c1.6 0 2.8-1.3 2.8-2.8V4.8c0-1.6-1-2-2.2-1l-3.8 3.3z"/></svg><svg version="1.1" id="topmenu-phone" x="0" y="0" viewBox="0 0 18 18" xml:space="preserve" xmlns="http://www.w3.org/2000/svg"><style>.dyst0{fill:#231f20}</style><path class="dyst0" d="M12.6 18h-.8c-3.6-.4-6.2-2.1-8.1-4.3C1.8 11.6.3 8.8 0 5V4c.1-.7.4-1.1.8-1.5C1.2 2 2 1.4 2.6 1.3c.5 0 1.3.3 1.6.8.3.4.4 1.2.6 1.8.1.6.4 1.4.4 2-.2.9-1.3 1.3-1.7 1.9 1.1 2.8 3 4.8 5.4 6.2.6-.3 1.2-1.4 2-1.4.3 0 .7.2 1 .3.3.1.6.2 1 .4.5.2 1.4.5 1.7.9.3.4.5 1.2.4 1.7-.1.8-1.6 1.8-2.4 2.1z" id="dyUrwUhy_1_"/><path class="dyst0" d="M9.1 1.1c4.3 0 7.8 3.6 7.8 8H18c0-5-4-9.1-8.9-9.1v1.1zm0 5.8V8c.6 0 1 .5 1 1.1h1.1c0-1.2-.9-2.2-2.1-2.2z"/><path class="dyst0" d="M9.1 4.6c2.4 0 4.4 2 4.4 4.5h1.2c0-3.1-2.5-5.7-5.5-5.7v1.2h-.1z"/></svg><svg viewBox="0 0 10 14" id="triangle-arrow-left" xmlns="http://www.w3.org/2000/svg"><path d="M0 7.1l10-7V14z"/></svg><svg viewBox="0 0 10 14" id="triangle-arrow-right" xmlns="http://www.w3.org/2000/svg"><path d="M0 14V.1l10 7z"/></svg><svg viewBox="0 0 20 20" id="user" xmlns="http://www.w3.org/2000/svg"><ellipse cx="10" cy="6" rx="5" ry="6"/><path d="M19.8 17.1c-.9-1.8-2.6-3.3-4.8-4.2-.6-.2-1.3-.2-1.8.1-1 .6-2 .9-3.2.9s-2.2-.3-3.2-.9c-.5-.2-1.2-.3-1.8 0-2.2.9-3.9 2.4-4.8 4.2-.7 1.3.4 2.8 1.9 2.8h15.8c1.5 0 2.6-1.5 1.9-2.9z"/></svg><svg viewBox="0 0 30 15.8" id="vk" xmlns="http://www.w3.org/2000/svg"><path d="M23.9 15.8c-.4 0-1.2-.1-2.1-.6-.6-.4-1.2-1-1.8-1.5-.4-.4-1.2-1.2-1.4-1.2-.3.1-.5.9-.5 1.6 0 .1 0 .8-.5 1.2-.4.4-1.1.5-1.2.5h-1.9c-1 0-4.4-.2-7.4-3C3.4 9.4.3 3 .1 2.7 0 2.2-.1 1.5.3 1.1.7.7 1.4.6 1.7.6h4.2c.1 0 .6.1 1 .3.4.2.6.7.6.7S8.1 3 9 4.3c1.3 2 1.9 2.5 2.1 2.6.2-.4.3-1.7.2-2.9 0-.5-.1-1.1-.3-1.3-.1-.1-.4-.3-.8-.3l-.7-.6c-.1-.7.6-1.2 1.1-1.4.7-.3 1.8-.4 3.1-.4h.7c1.2 0 1.6.1 2.1.2 1.7.4 1.6 1.7 1.6 3.3v2.1c0 .4 0 1 .1 1.3.2-.1.9-.7 2.1-2.5.8-1.2 1.4-2.5 1.5-2.8.2-.4.6-.9 1.6-.9h4.7c1 0 1.6.3 1.8.9.3.6.2 1.7-2.4 4.6-.4.4-.7.8-1 1.1-.6.7-1.2 1.4-1.2 1.6.1.1.7.6 1.3 1.1 1.5 1.2 2.5 2.3 3 3.1.5.8.4 1.3.3 1.7-.4.9-1.6 1-1.9 1h-4.1zm-5.3-4.9c.9 0 1.7.8 2.5 1.6.5.5 1 1 1.5 1.3.7.4 1.3.4 1.4.4h3.9c.2 0 .4-.1.5-.1 0 0 0-.1-.1-.2-.4-.7-1.4-1.7-2.7-2.7-1.2-1-1.8-1.5-1.9-2.2-.1-.8.5-1.4 1.6-2.7.3-.3.6-.7 1-1.1 1.6-1.8 2-2.6 2.1-3h-5.3c-.2.4-.8 1.8-1.6 3-1.9 2.8-2.8 3.2-3.4 3.2-.2 0-.4 0-.6-.1-1-.6-1-1.8-.9-2.8V3.4c.1-1.7 0-1.7-.4-1.8-.4-.1-.7-.1-1.9-.2h-.7c-.6 0-1.3 0-1.9.1l.3.3c.6.7.6 2 .6 2.2.1 1.6.1 3.8-1 4.3-.2.1-.4.1-.6.1-.9 0-1.9-.9-3.4-3.3-.8-1.2-1.5-2.7-1.5-2.8L6 2.2c-.1 0-.2-.1-.3-.1H1.6c.6 1.2 3.4 6.6 6.5 9.5 2.7 2.5 5.8 2.6 6.4 2.6h1.9s.2-.1.3-.1V14c0-.3 0-2.6 1.6-3 .1-.1.2-.1.3-.1z"/></svg></svg>